# xmcd
#
# Track frame offsets: 
#        150
#        19109
#        34311
#        44179
#        59415
#        78229
#        94817
#        108950
#        125992
#        140000
#        153181
#        167946
#        188919
#        201951
#
# Disc length: 2873 seconds
#
# Revision: 1
# Processed by: cddbd v1.5.2PL0 Copyright (c) Steve Scherf et al.
# Submitted via: ExactAudioCopy v0.95a4
#
DISCID=cd0b370e
DTITLE=Emeli Sandé - Our Version of Events
DYEAR=2012
DGENRE=R&B
TTITLE0=Heaven
TTITLE1=My Kind of Love
TTITLE2=Where I Sleep
TTITLE3=Wonder (Featuring Naughty Boy)
TTITLE4=Mountains
TTITLE5=Clown
TTITLE6=Daddy (Featuring Naughty Boy)
TTITLE7=Maybe
TTITLE8=Suitcase
TTITLE9=Breaking the Law
TTITLE10=Next to Me
TTITLE11=River
TTITLE12=Lifetime
TTITLE13=Hope
EXTD=
EXTT0=
EXTT1=
EXTT2=
EXTT3=
EXTT4=
EXTT5=
EXTT6=
EXTT7=
EXTT8=
EXTT9=
EXTT10=
EXTT11=
EXTT12=
EXTT13=
PLAYORDER=
